<?xml version="1.0" encoding="UTF-8"?>
<!-- Created with Inkscape (http://www.inkscape.org/) -->
<svg width="103.17mm" height="135.43mm" version="1.1" viewBox="0 0 103.17 135.43" xml:space="preserve" xmlns="http://www.w3.org/2000/svg"><g transform="translate(-36.911 -76.348)"><path d="m61.804 211.52c-3.4439-0.67634-6.7622-3.2317-8.3248-6.4106-0.9175-1.8666-1.1238-2.8714-1.5989-7.7891l-0.13421-1.3891h73.504l-0.1342 1.3891c-0.47513 4.9177-0.68139 5.9225-1.5989 7.7891-1.611 3.2774-4.8699 5.7323-8.5318 6.4267-1.7577 0.33334-51.479 0.31827-53.181-0.0161zm-10.726-24.386c-0.0759-0.47294-1.3899-16.219-2.9201-34.991-1.5301-18.772-2.8441-34.578-2.9198-35.123l-0.13776-0.99219h86.796l-0.13776 0.99219c-0.0758 0.5457-1.3897 16.351-2.9198 35.123-1.5301 18.772-2.8442 34.518-2.9201 34.991l-0.138 0.8599h-7.9255c-4.359 0-7.924-0.0298-7.9222-0.0662 2e-3 -0.0364 1.1247-13.604 2.4953-30.151 1.8446-22.27 2.4263-30.323 2.2392-31.001-0.28189-1.0209-1.7447-2.4492-2.7727-2.7072-0.95666-0.24011-2.5021 0.0634-3.2819 0.64453-1.5922 1.1866-1.4207-0.16313-4.1118 32.361-1.377 16.642-2.5048 30.407-2.5063 30.589-2e-3 0.25223-1.133 0.33073-4.7652 0.33073h-4.7625v-30.453c0-33.697 0.10901-31.573-1.6863-32.854-1.1546-0.82358-3.4104-0.82358-4.565 0-1.7953 1.2806-1.6863-0.84328-1.6863 32.854v30.453h-4.7625c-3.6322 0-4.7631-0.0785-4.7652-0.33073-1e-3 -0.1819-1.1293-13.947-2.5063-30.589-2.6912-32.525-2.5197-31.175-4.1118-32.361-0.77975-0.58112-2.3252-0.88464-3.2819-0.64453-1.028 0.258-2.4908 1.6863-2.7727 2.7072-0.1871 0.67762 0.39458 8.7306 2.2392 31.001 1.3706 16.547 2.4935 30.115 2.4953 30.151 2e-3 0.0364-3.5632 0.0662-7.9222 0.0662h-7.9255zm-11.977-79.595c-0.81216-0.40202-1.2654-0.86894-1.685-1.7357-0.51708-1.0682-0.56269-1.5056-0.45994-4.4108 0.0893-2.524 0.23408-3.4924 0.66618-4.4551 0.70102-1.5618 2.4223-3.2902 4.0056-4.0221 1.1972-0.55345 1.5745-0.57072 14.129-0.64655l12.898-0.0779v-2.3334c0-1.2834 0.12153-2.9742 0.27006-3.7574 0.90116-4.7518 4.7388-8.5895 9.4906-9.4906 1.8542-0.35164 18.312-0.35164 20.166 0 4.7518 0.90116 8.5895 4.7388 9.4906 9.4906 0.14853 0.78321 0.27006 2.474 0.27006 3.7574v2.3334l12.898 0.0779c12.554 0.0758 12.931 0.0931 14.129 0.64655 1.5833 0.73191 3.3046 2.4603 4.0056 4.0221 0.43211 0.9627 0.57692 1.9312 0.66619 4.4551 0.10288 2.909 0.0576 3.3417-0.46242 4.4159-0.42807 0.88428-0.86632 1.3312-1.7024 1.7359-1.1243 0.54427-1.1971 0.54507-49.395 0.54486l-48.269-2e-4zm61.262-18.037c-0.0763-2.293-0.1814-2.8398-0.68033-3.5392-1.1706-1.641-1.4706-1.6863-11.184-1.6863-9.7132 0-10.013 0.0453-11.184 1.6863-0.49893 0.69946-0.60405 1.2463-0.68034 3.5392l-0.0902 2.712h23.909z" fill="#1a1a1a"/></g></svg>
